<svg width="220" height="220" viewBox="0 0 220 220" xmlns="http://www.w3.org/2000/svg">
  <!-- Christmas Gift Explosion Effect -->
  <defs>
    <radialGradient id="sparkGrad" cx="50%" cy="50%">
      <stop offset="0%" style="stop-color:#fff176;stop-opacity:1"/>
      <stop offset="100%" style="stop-color:#ffd54f;stop-opacity:0"/>
    </radialGradient>
  </defs>
  
  <!-- Center Burst -->
  <circle cx="110" cy="110" r="50" fill="url(#sparkGrad)" opacity="0.8"/>
  
  <!-- Gift Boxes Flying Out -->
  <g transform="rotate(0 110 110)">
    <rect x="100" y="30" width="20" height="20" fill="#f44336" rx="2"/>
    <rect x="108" y="30" width="4" height="20" fill="#ffeb3b"/>
  </g>
  
  <g transform="rotate(45 110 110)">
    <rect x="100" y="30" width="18" height="18" fill="#4caf50" rx="2"/>
    <rect x="107" y="30" width="4" height="18" fill="#ff9800"/>
  </g>
  
  <g transform="rotate(90 110 110)">
    <rect x="100" y="30" width="20" height="20" fill="#2196f3" rx="2"/>
    <rect x="108" y="30" width="4" height="20" fill="#ffeb3b"/>
  </g>
  
  <g transform="rotate(135 110 110)">
    <rect x="100" y="30" width="18" height="18" fill="#ff5722" rx="2"/>
    <rect x="107" y="30" width="4" height="18" fill="#fdd835"/>
  </g>
  
  <g transform="rotate(180 110 110)">
    <rect x="100" y="30" width="20" height="20" fill="#9c27b0" rx="2"/>
    <rect x="108" y="30" width="4" height="20" fill="#ffeb3b"/>
  </g>
  
  <g transform="rotate(225 110 110)">
    <rect x="100" y="30" width="18" height="18" fill="#00bcd4" rx="2"/>
    <rect x="107" y="30" width="4" height="18" fill="#ff9800"/>
  </g>
  
  <g transform="rotate(270 110 110)">
    <rect x="100" y="30" width="20" height="20" fill="#cddc39" rx="2"/>
    <rect x="108" y="30" width="4" height="20" fill="#e91e63"/>
  </g>
  
  <g transform="rotate(315 110 110)">
    <rect x="100" y="30" width="18" height="18" fill="#ff6f00" rx="2"/>
    <rect x="107" y="30" width="4" height="18" fill="#fdd835"/>
  </g>
  
  <!-- Stars -->
  <text x="60" y="60" font-size="24" fill="#ffeb3b">★</text>
  <text x="140" y="70" font-size="20" fill="#ffd54f">★</text>
  <text x="70" y="150" font-size="22" fill="#fff176">★</text>
  <text x="150" y="140" font-size="18" fill="#ffeb3b">★</text>
  
  <!-- Sparkles -->
  <circle cx="80" cy="80" r="3" fill="#ffffff"/>
  <circle cx="140" cy="90" r="4" fill="#ffffff"/>
  <circle cx="75" cy="140" r="3" fill="#ffffff"/>
  <circle cx="145" cy="130" r="4" fill="#ffffff"/>
  <circle cx="110" cy="50" r="3" fill="#ffffff"/>
  <circle cx="50" cy="110" r="3" fill="#ffffff"/>
  <circle cx="170" cy="110" r="4" fill="#ffffff"/>
  <circle cx="110" cy="170" r="3" fill="#ffffff"/>
</svg>
